<svg width="64" height="64" viewBox="0 0 64 64" fill="none" xmlns="http://www.w3.org/2000/svg">
  <path d="M6 12.5C6 9.46243 8.46243 7 11.5 7H21.0774C23.3617 7 25.4142 8.3903 26.2667 10.5096L33.3149 28.0271C34.0836 29.9374 36.795 29.9136 37.53 27.9901L43.9257 11.2567C44.7467 9.10798 46.8093 7.68979 49.1094 7.68979H53.5C57.6421 7.68979 60.5421 11.7798 59.1768 15.6905L47.9335 47.9013C46.4007 52.2913 42.2587 55.2353 37.6089 55.2353H33.5519C28.8784 55.2353 24.7191 52.2608 23.2031 47.8385L6.51696 19.1895C6.17568 18.2029 6 17.1665 6 16.1225V12.5Z" fill="#1F66EA"/>
  <path d="M48.5 18.5C53.7467 18.5 58 14.2467 58 9C58 3.75329 53.7467 -0.5 48.5 -0.5C43.2533 -0.5 39 3.75329 39 9C39 14.2467 43.2533 18.5 48.5 18.5Z" fill="#1F66EA"/>
  <circle cx="48.5" cy="9" r="3.2" fill="#B4D8FF"/>
</svg>
